<mxfile host="65bd71144e">
    <diagram id="N5Ed9KdLZy4HbXOIfR6Z" name="Page-1">
        <mxGraphModel dx="1204" dy="800" grid="1" gridSize="10" guides="1" tooltips="1" connect="1" arrows="1" fold="1" page="1" pageScale="1" pageWidth="827" pageHeight="1169" math="0" shadow="0">
            <root>
                <mxCell id="0"/>
                <mxCell id="1" parent="0"/>
                <mxCell id="UbYmDaiATQoz_6eJb8uk-1" value="Peliprojekti_Luokkakaavio" style="rounded=0;whiteSpace=wrap;html=1;verticalAlign=top;align=center;" vertex="1" parent="1">
                    <mxGeometry x="40" y="40" width="720" height="760" as="geometry"/>
                </mxCell>
                <mxCell id="UbYmDaiATQoz_6eJb8uk-22" value="Sanalista" style="swimlane;fontStyle=1;align=center;verticalAlign=top;childLayout=stackLayout;horizontal=1;startSize=26;horizontalStack=0;resizeParent=1;resizeParentMax=0;resizeLast=0;collapsible=1;marginBottom=0;" parent="1" vertex="1">
                    <mxGeometry x="310" y="180" width="190" height="140" as="geometry"/>
                </mxCell>
                <mxCell id="UbYmDaiATQoz_6eJb8uk-23" value="+ sanalista.txt" style="text;strokeColor=none;fillColor=none;align=left;verticalAlign=top;spacingLeft=4;spacingRight=4;overflow=hidden;rotatable=0;points=[[0,0.5],[1,0.5]];portConstraint=eastwest;" parent="UbYmDaiATQoz_6eJb8uk-22" vertex="1">
                    <mxGeometry y="26" width="190" height="26" as="geometry"/>
                </mxCell>
                <mxCell id="UbYmDaiATQoz_6eJb8uk-24" value="" style="line;strokeWidth=1;fillColor=none;align=left;verticalAlign=middle;spacingTop=-1;spacingLeft=3;spacingRight=3;rotatable=0;labelPosition=right;points=[];portConstraint=eastwest;" parent="UbYmDaiATQoz_6eJb8uk-22" vertex="1">
                    <mxGeometry y="52" width="190" height="8" as="geometry"/>
                </mxCell>
                <mxCell id="UbYmDaiATQoz_6eJb8uk-25" value="+ Lista sanoja, josta tiedostonluku&#10;arpoo sanan." style="text;strokeColor=none;fillColor=none;align=left;verticalAlign=top;spacingLeft=4;spacingRight=4;overflow=hidden;rotatable=0;points=[[0,0.5],[1,0.5]];portConstraint=eastwest;" parent="UbYmDaiATQoz_6eJb8uk-22" vertex="1">
                    <mxGeometry y="60" width="190" height="80" as="geometry"/>
                </mxCell>
                <mxCell id="UbYmDaiATQoz_6eJb8uk-26" value="Tiedostonluku" style="swimlane;fontStyle=1;align=center;verticalAlign=top;childLayout=stackLayout;horizontal=1;startSize=26;horizontalStack=0;resizeParent=1;resizeParentMax=0;resizeLast=0;collapsible=1;marginBottom=0;" parent="1" vertex="1">
                    <mxGeometry x="70" y="250" width="190" height="134" as="geometry"/>
                </mxCell>
                <mxCell id="UbYmDaiATQoz_6eJb8uk-28" value="" style="line;strokeWidth=1;fillColor=none;align=left;verticalAlign=middle;spacingTop=-1;spacingLeft=3;spacingRight=3;rotatable=0;labelPosition=right;points=[];portConstraint=eastwest;" parent="UbYmDaiATQoz_6eJb8uk-26" vertex="1">
                    <mxGeometry y="26" width="190" height="8" as="geometry"/>
                </mxCell>
                <mxCell id="UbYmDaiATQoz_6eJb8uk-29" value="+ Arpoo sanan sanalista&#10;   -tiedostosta." style="text;strokeColor=none;fillColor=none;align=left;verticalAlign=top;spacingLeft=4;spacingRight=4;overflow=hidden;rotatable=0;points=[[0,0.5],[1,0.5]];portConstraint=eastwest;" vertex="1" parent="UbYmDaiATQoz_6eJb8uk-26">
                    <mxGeometry y="34" width="190" height="100" as="geometry"/>
                </mxCell>
                <mxCell id="UbYmDaiATQoz_6eJb8uk-30" value="Hirsipuu" style="swimlane;fontStyle=1;align=center;verticalAlign=top;childLayout=stackLayout;horizontal=1;startSize=26;horizontalStack=0;resizeParent=1;resizeParentMax=0;resizeLast=0;collapsible=1;marginBottom=0;" parent="1" vertex="1">
                    <mxGeometry x="70" y="420" width="190" height="124" as="geometry"/>
                </mxCell>
                <mxCell id="UbYmDaiATQoz_6eJb8uk-32" value="" style="line;strokeWidth=1;fillColor=none;align=left;verticalAlign=middle;spacingTop=-1;spacingLeft=3;spacingRight=3;rotatable=0;labelPosition=right;points=[];portConstraint=eastwest;" parent="UbYmDaiATQoz_6eJb8uk-30" vertex="1">
                    <mxGeometry y="26" width="190" height="8" as="geometry"/>
                </mxCell>
                <mxCell id="UbYmDaiATQoz_6eJb8uk-33" value="+ Tarkistaa annetun kirjaimen&#10;&#10;+ Oikea ravaus&#10;+ Väärä arvaus&#10;+Tulostusmuoto" style="text;strokeColor=none;fillColor=none;align=left;verticalAlign=top;spacingLeft=4;spacingRight=4;overflow=hidden;rotatable=0;points=[[0,0.5],[1,0.5]];portConstraint=eastwest;" parent="UbYmDaiATQoz_6eJb8uk-30" vertex="1">
                    <mxGeometry y="34" width="190" height="90" as="geometry"/>
                </mxCell>
                <mxCell id="UbYmDaiATQoz_6eJb8uk-34" value="Käyttöliittymä" style="swimlane;fontStyle=1;align=center;verticalAlign=top;childLayout=stackLayout;horizontal=1;startSize=26;horizontalStack=0;resizeParent=1;resizeParentMax=0;resizeLast=0;collapsible=1;marginBottom=0;" parent="1" vertex="1">
                    <mxGeometry x="70" y="610" width="190" height="144" as="geometry"/>
                </mxCell>
                <mxCell id="UbYmDaiATQoz_6eJb8uk-36" value="" style="line;strokeWidth=1;fillColor=none;align=left;verticalAlign=middle;spacingTop=-1;spacingLeft=3;spacingRight=3;rotatable=0;labelPosition=right;points=[];portConstraint=eastwest;" parent="UbYmDaiATQoz_6eJb8uk-34" vertex="1">
                    <mxGeometry y="26" width="190" height="8" as="geometry"/>
                </mxCell>
                <mxCell id="UbYmDaiATQoz_6eJb8uk-37" value="+ Kysyy kirjaimen&#10;&#10;+ Käynnistää ohjelman&#10;&#10;+ Tulostus&#10;" style="text;strokeColor=none;fillColor=none;align=left;verticalAlign=top;spacingLeft=4;spacingRight=4;overflow=hidden;rotatable=0;points=[[0,0.5],[1,0.5]];portConstraint=eastwest;" parent="UbYmDaiATQoz_6eJb8uk-34" vertex="1">
                    <mxGeometry y="34" width="190" height="110" as="geometry"/>
                </mxCell>
                <mxCell id="10" value="Ohjelma" style="swimlane;fontStyle=1;align=center;verticalAlign=top;childLayout=stackLayout;horizontal=1;startSize=26;horizontalStack=0;resizeParent=1;resizeParentMax=0;resizeLast=0;collapsible=1;marginBottom=0;" vertex="1" parent="1">
                    <mxGeometry x="70" y="70" width="190" height="144" as="geometry"/>
                </mxCell>
                <mxCell id="11" value="" style="line;strokeWidth=1;fillColor=none;align=left;verticalAlign=middle;spacingTop=-1;spacingLeft=3;spacingRight=3;rotatable=0;labelPosition=right;points=[];portConstraint=eastwest;" vertex="1" parent="10">
                    <mxGeometry y="26" width="190" height="8" as="geometry"/>
                </mxCell>
                <mxCell id="12" value="+ Käynnistää ohjelman" style="text;strokeColor=none;fillColor=none;align=left;verticalAlign=top;spacingLeft=4;spacingRight=4;overflow=hidden;rotatable=0;points=[[0,0.5],[1,0.5]];portConstraint=eastwest;" vertex="1" parent="10">
                    <mxGeometry y="34" width="190" height="110" as="geometry"/>
                </mxCell>
            </root>
        </mxGraphModel>
    </diagram>
</mxfile>